<svg width="18" height="18" viewBox="0 0 18 18" fill="none" xmlns="http://www.w3.org/2000/svg">
<path d="M15.1042 13.376L13.462 10.9722C12.8755 10.1138 11.5682 10.1338 11.0824 10.9881C10.7292 11.576 9.92109 11.7743 9.28983 11.4948C7.89522 10.8346 6.2969 8.58708 6.24004 7.03061C6.15274 6.35033 6.74102 5.7382 7.44616 5.66545C8.45976 5.58381 9.00462 4.44772 8.41812 3.58923L6.77593 1.18546C6.29195 0.569117 5.41087 0.384348 4.79348 0.769727L3.11772 1.81576C1.42718 2.93224 2.18606 6.98952 4.9426 11.0244C7.69914 15.0593 11.2656 17.4254 13.0295 16.3242L14.7053 15.2782C15.3375 14.8224 15.5148 13.977 15.1042 13.376Z" stroke="white"/>
</svg>
